<svg xmlns="http://www.w3.org/2000/svg" viewBox="0 0 240 96" role="img" aria-label="IBM">
  <g fill="#0f62fe">
    <!-- Simplified IBM 8-bar mark -->
    <g>
      <rect x="20" y="22" width="52" height="6"/>
      <rect x="20" y="34" width="52" height="6"/>
      <rect x="20" y="46" width="52" height="6"/>
      <rect x="20" y="58" width="52" height="6"/>
      <rect x="20" y="70" width="52" height="6"/>
    </g>
    <g transform="translate(76,0)">
      <rect x="20" y="22" width="52" height="6"/>
      <rect x="20" y="34" width="52" height="6"/>
      <rect x="20" y="46" width="52" height="6"/>
      <rect x="20" y="58" width="52" height="6"/>
      <rect x="20" y="70" width="52" height="6"/>
    </g>
    <g transform="translate(152,0)">
      <rect x="20" y="22" width="52" height="6"/>
      <rect x="20" y="34" width="52" height="6"/>
      <rect x="20" y="46" width="52" height="6"/>
      <rect x="20" y="58" width="52" height="6"/>
      <rect x="20" y="70" width="52" height="6"/>
    </g>
  </g>
</svg>
